<svg xmlns="http://www.w3.org/2000/svg" xmlns:xlink="http://www.w3.org/1999/xlink" width="500" zoomAndPan="magnify" viewBox="0 0 375 374.999991" height="500" preserveAspectRatio="xMidYMid meet" version="1.0">
  <defs>
    <clipPath id="a80f331920">
      <path d="M 89 113 L 286 113 L 286 262.457031 L 89 262.457031 Z M 89 113 " clip-rule="nonzero"/>
    </clipPath>
  </defs>
  <g clip-path="url(#a80f331920)">
    <path fill="#000000" d="M 281.199219 118.308594 C 275.351562 112.460938 265.859375 112.460938 260.015625 118.308594 C 260.015625 118.308594 168.90625 209.492188 153.164062 225.25 C 152.554688 225.863281 151.726562 226.207031 150.863281 226.207031 C 150 226.207031 149.171875 225.863281 148.558594 225.25 C 140.582031 217.265625 114.609375 191.273438 114.609375 191.273438 C 108.761719 185.417969 99.269531 185.417969 93.425781 191.273438 C 87.578125 197.121094 87.578125 206.625 93.425781 212.472656 C 93.425781 212.472656 128.542969 247.628906 137.96875 257.054688 C 141.386719 260.476562 146.027344 262.402344 150.863281 262.402344 C 155.699219 262.402344 160.339844 260.476562 163.757812 257.054688 C 180.367188 240.433594 281.199219 139.515625 281.199219 139.515625 C 287.046875 133.660156 287.046875 124.164062 281.199219 118.308594 Z M 281.199219 118.308594 " fill-opacity="1" fill-rule="evenodd"/>
  </g>
</svg>