<svg xmlns="http://www.w3.org/2000/svg" xmlns:xlink="http://www.w3.org/1999/xlink" width="500" zoomAndPan="magnify" viewBox="0 0 375 374.999991" height="500" preserveAspectRatio="xMidYMid meet" version="1.0">
  <defs>
    <clipPath id="a8038aae11">
      <path d="M 59 113 L 256 113 L 256 262.457031 L 59 262.457031 Z M 59 113 " clip-rule="nonzero"/>
    </clipPath>
    <clipPath id="d86913f566">
      <path d="M 150.867188 113 L 316 113 L 316 262.457031 L 150.867188 262.457031 Z M 150.867188 113 " clip-rule="nonzero"/>
    </clipPath>
  </defs>
  <g clip-path="url(#a8038aae11)">
    <path fill="#000000" d="M 251.175781 118.308594 C 245.332031 112.460938 235.839844 112.460938 229.992188 118.308594 C 229.992188 118.308594 138.882812 209.492188 123.144531 225.25 C 122.53125 225.863281 121.703125 226.207031 120.839844 226.207031 C 119.976562 226.207031 119.148438 225.863281 118.539062 225.25 C 110.558594 217.265625 84.585938 191.273438 84.585938 191.273438 C 78.742188 185.417969 69.25 185.417969 63.402344 191.273438 C 57.554688 197.121094 57.554688 206.625 63.402344 212.472656 C 63.402344 212.472656 98.523438 247.628906 107.945312 257.054688 C 111.363281 260.476562 116.003906 262.402344 120.839844 262.402344 C 125.675781 262.402344 130.316406 260.476562 133.734375 257.054688 C 150.34375 240.433594 251.175781 139.515625 251.175781 139.515625 C 257.023438 133.660156 257.023438 124.160156 251.175781 118.308594 Z M 251.175781 118.308594 " fill-opacity="1" fill-rule="evenodd"/>
  </g>
  <g clip-path="url(#d86913f566)">
    <path fill="#000000" d="M 311.222656 118.308594 C 305.375 112.460938 295.882812 112.460938 290.035156 118.308594 C 290.035156 118.308594 198.929688 209.492188 183.1875 225.25 C 182.578125 225.863281 181.75 226.207031 180.886719 226.207031 C 180.023438 226.207031 179.191406 225.863281 178.582031 225.25 C 170.605469 217.265625 144.632812 191.273438 144.632812 191.273438 C 138.785156 185.417969 129.292969 185.417969 123.445312 191.273438 C 117.601562 197.121094 117.601562 206.625 123.445312 212.472656 C 123.445312 212.472656 158.566406 247.628906 167.988281 257.054688 C 171.410156 260.476562 176.046875 262.402344 180.886719 262.402344 C 185.722656 262.402344 190.359375 260.476562 193.78125 257.054688 C 210.390625 240.433594 311.222656 139.515625 311.222656 139.515625 C 317.066406 133.660156 317.066406 124.160156 311.222656 118.308594 Z M 311.222656 118.308594 " fill-opacity="1" fill-rule="evenodd"/>
  </g>
</svg>