<svg xmlns="http://www.w3.org/2000/svg" xmlns:xlink="http://www.w3.org/1999/xlink" width="500" zoomAndPan="magnify" viewBox="0 0 375 374.999991" height="500" preserveAspectRatio="xMidYMid meet" version="1.0">
  <defs>
    <clipPath id="a56203501d">
      <path d="M 61.796875 69 L 313 69 L 313 306 L 61.796875 306 Z M 61.796875 69 " clip-rule="nonzero"/>
    </clipPath>
  </defs>
  <g clip-path="url(#a56203501d)">
    <path fill="#000000" d="M 311.675781 86.589844 L 265.746094 275.445312 C 265.636719 275.894531 265.5 276.335938 265.339844 276.769531 C 265.179688 277.203125 264.996094 277.625 264.789062 278.039062 C 264.582031 278.453125 264.351562 278.851562 264.097656 279.238281 C 263.84375 279.625 263.570312 279.996094 263.273438 280.351562 C 262.980469 280.707031 262.664062 281.042969 262.332031 281.363281 C 261.996094 281.683594 261.648438 281.984375 261.28125 282.265625 C 260.914062 282.546875 260.53125 282.804688 260.132812 283.042969 C 259.738281 283.28125 259.328125 283.496094 258.910156 283.6875 C 258.488281 283.878906 258.058594 284.042969 257.617188 284.1875 C 257.179688 284.328125 256.730469 284.449219 256.277344 284.539062 C 255.828125 284.632812 255.371094 284.699219 254.910156 284.738281 C 254.449219 284.78125 253.988281 284.796875 253.527344 284.785156 C 253.0625 284.773438 252.601562 284.734375 252.144531 284.671875 C 251.6875 284.609375 251.234375 284.519531 250.785156 284.40625 C 250.339844 284.292969 249.898438 284.152344 249.46875 283.988281 C 249.035156 283.824219 248.613281 283.636719 248.203125 283.425781 L 191.976562 254.4375 L 165.082031 298.367188 C 164.671875 299.039062 164.214844 299.667969 163.703125 300.261719 C 163.191406 300.855469 162.632812 301.40625 162.035156 301.910156 C 161.433594 302.410156 160.796875 302.863281 160.121094 303.265625 C 159.449219 303.664062 158.746094 304.007812 158.015625 304.292969 C 157.289062 304.578125 156.539062 304.804688 155.773438 304.96875 C 155.007812 305.132812 154.230469 305.234375 153.449219 305.273438 C 152.667969 305.3125 151.886719 305.289062 151.105469 305.199219 C 150.328125 305.113281 149.5625 304.960938 148.808594 304.75 C 148.054688 304.539062 147.320312 304.265625 146.609375 303.933594 C 145.898438 303.601562 145.222656 303.214844 144.574219 302.773438 C 143.925781 302.332031 143.320312 301.84375 142.75 301.300781 C 142.183594 300.761719 141.664062 300.179688 141.191406 299.554688 C 140.71875 298.929688 140.296875 298.269531 139.933594 297.578125 C 139.566406 296.886719 139.257812 296.167969 139.007812 295.425781 C 138.757812 294.679688 138.570312 293.921875 138.445312 293.148438 C 138.320312 292.375 138.257812 291.597656 138.257812 290.816406 L 138.257812 233.660156 L 142.8125 229.152344 L 163.335938 209.015625 L 251.105469 122.847656 L 116.933594 215.839844 L 67.179688 190.222656 C 66.347656 189.796875 65.59375 189.261719 64.910156 188.621094 C 64.230469 187.980469 63.652344 187.261719 63.175781 186.457031 C 62.699219 185.652344 62.339844 184.796875 62.105469 183.894531 C 61.871094 182.988281 61.761719 182.070312 61.785156 181.136719 C 61.808594 180.203125 61.960938 179.289062 62.242188 178.398438 C 62.523438 177.507812 62.921875 176.671875 63.441406 175.894531 C 63.957031 175.113281 64.570312 174.421875 65.28125 173.816406 C 65.996094 173.210938 66.777344 172.714844 67.628906 172.328125 L 292.242188 70.511719 C 293.441406 69.996094 294.683594 69.652344 295.976562 69.480469 C 297.269531 69.308594 298.5625 69.316406 299.855469 69.5 C 301.144531 69.6875 302.386719 70.042969 303.578125 70.570312 C 304.773438 71.097656 305.871094 71.777344 306.875 72.609375 C 307.882812 73.441406 308.753906 74.390625 309.496094 75.464844 C 310.238281 76.539062 310.820312 77.691406 311.246094 78.921875 C 311.667969 80.15625 311.917969 81.425781 311.988281 82.726562 C 312.0625 84.027344 311.957031 85.316406 311.675781 86.589844 Z M 311.675781 86.589844 " fill-opacity="1" fill-rule="nonzero"/>
  </g>
</svg>