<svg xmlns="http://www.w3.org/2000/svg" xmlns:xlink="http://www.w3.org/1999/xlink" width="500" zoomAndPan="magnify" viewBox="0 0 375 374.999991" height="500" preserveAspectRatio="xMidYMid meet" version="1.0">
  <defs>
    <clipPath id="54473d8739">
      <path d="M 71.9375 71 L 302.9375 71 L 302.9375 280 L 71.9375 280 Z M 71.9375 71 " clip-rule="nonzero"/>
    </clipPath>
    <clipPath id="a6ec3add61">
      <path d="M 164 48.722656 L 211 48.722656 L 211 96 L 164 96 Z M 164 48.722656 " clip-rule="nonzero"/>
    </clipPath>
    <clipPath id="8c2fa8ccfc">
      <path d="M 156 295 L 219 295 L 219 326.222656 L 156 326.222656 Z M 156 295 " clip-rule="nonzero"/>
    </clipPath>
  </defs>
  <g clip-path="url(#54473d8739)">
    <path fill="#000000" d="M 264.535156 148.976562 C 264.535156 233.71875 303.054688 226.015625 303.054688 264.535156 C 303.054688 264.535156 303.054688 279.941406 287.644531 279.941406 L 87.34375 279.941406 C 71.9375 279.941406 71.9375 264.535156 71.9375 264.535156 C 71.9375 226.015625 110.457031 233.71875 110.457031 148.976562 C 110.457031 106.433594 144.945312 71.9375 187.496094 71.9375 C 230.042969 71.9375 264.535156 106.433594 264.535156 148.976562 Z M 264.535156 148.976562 " fill-opacity="1" fill-rule="nonzero"/>
  </g>
  <g clip-path="url(#a6ec3add61)">
    <path fill="#000000" d="M 210.605469 71.9375 C 210.605469 72.695312 210.570312 73.449219 210.496094 74.203125 C 210.421875 74.957031 210.308594 75.703125 210.164062 76.445312 C 210.015625 77.1875 209.832031 77.921875 209.609375 78.644531 C 209.390625 79.371094 209.136719 80.082031 208.847656 80.78125 C 208.558594 81.480469 208.234375 82.164062 207.878906 82.832031 C 207.519531 83.5 207.132812 84.148438 206.710938 84.777344 C 206.289062 85.40625 205.839844 86.015625 205.359375 86.597656 C 204.878906 87.183594 204.371094 87.746094 203.835938 88.28125 C 203.300781 88.816406 202.742188 89.324219 202.15625 89.800781 C 201.570312 90.28125 200.964844 90.734375 200.335938 91.152344 C 199.707031 91.574219 199.058594 91.964844 198.390625 92.320312 C 197.722656 92.675781 197.039062 93 196.339844 93.289062 C 195.640625 93.578125 194.929688 93.832031 194.203125 94.054688 C 193.480469 94.273438 192.746094 94.457031 192.003906 94.605469 C 191.261719 94.753906 190.511719 94.863281 189.761719 94.9375 C 189.007812 95.011719 188.25 95.046875 187.496094 95.046875 C 186.738281 95.046875 185.984375 95.011719 185.230469 94.9375 C 184.476562 94.863281 183.726562 94.753906 182.984375 94.605469 C 182.242188 94.457031 181.511719 94.273438 180.785156 94.054688 C 180.0625 93.832031 179.347656 93.578125 178.648438 93.289062 C 177.949219 93 177.265625 92.675781 176.601562 92.320312 C 175.933594 91.964844 175.285156 91.574219 174.65625 91.152344 C 174.023438 90.734375 173.417969 90.28125 172.832031 89.800781 C 172.246094 89.324219 171.6875 88.816406 171.152344 88.28125 C 170.617188 87.746094 170.109375 87.183594 169.628906 86.597656 C 169.148438 86.015625 168.699219 85.40625 168.277344 84.777344 C 167.855469 84.148438 167.46875 83.5 167.113281 82.832031 C 166.753906 82.164062 166.433594 81.480469 166.140625 80.78125 C 165.851562 80.082031 165.597656 79.371094 165.378906 78.644531 C 165.160156 77.921875 164.972656 77.1875 164.828125 76.445312 C 164.679688 75.703125 164.566406 74.957031 164.492188 74.203125 C 164.417969 73.449219 164.382812 72.695312 164.382812 71.9375 C 164.382812 71.179688 164.417969 70.425781 164.492188 69.671875 C 164.566406 68.917969 164.679688 68.171875 164.828125 67.429688 C 164.972656 66.6875 165.160156 65.953125 165.378906 65.226562 C 165.597656 64.503906 165.851562 63.792969 166.140625 63.09375 C 166.433594 62.394531 166.753906 61.710938 167.113281 61.042969 C 167.46875 60.375 167.855469 59.726562 168.277344 59.097656 C 168.699219 58.46875 169.148438 57.859375 169.628906 57.273438 C 170.109375 56.691406 170.617188 56.128906 171.152344 55.59375 C 171.6875 55.058594 172.246094 54.550781 172.832031 54.070312 C 173.417969 53.589844 174.023438 53.140625 174.65625 52.71875 C 175.285156 52.300781 175.933594 51.910156 176.601562 51.554688 C 177.265625 51.199219 177.949219 50.875 178.648438 50.585938 C 179.347656 50.296875 180.0625 50.039062 180.785156 49.820312 C 181.511719 49.601562 182.242188 49.417969 182.984375 49.269531 C 183.726562 49.121094 184.476562 49.011719 185.230469 48.9375 C 185.984375 48.863281 186.738281 48.824219 187.496094 48.824219 C 188.25 48.824219 189.007812 48.863281 189.761719 48.9375 C 190.511719 49.011719 191.261719 49.121094 192.003906 49.269531 C 192.746094 49.417969 193.480469 49.601562 194.203125 49.820312 C 194.929688 50.039062 195.640625 50.296875 196.339844 50.585938 C 197.039062 50.875 197.722656 51.199219 198.390625 51.554688 C 199.058594 51.910156 199.707031 52.300781 200.335938 52.71875 C 200.964844 53.140625 201.570312 53.589844 202.15625 54.070312 C 202.742188 54.550781 203.300781 55.058594 203.835938 55.59375 C 204.371094 56.128906 204.878906 56.691406 205.359375 57.273438 C 205.839844 57.859375 206.289062 58.46875 206.710938 59.097656 C 207.132812 59.726562 207.519531 60.375 207.878906 61.042969 C 208.234375 61.710938 208.558594 62.394531 208.847656 63.09375 C 209.136719 63.792969 209.390625 64.503906 209.609375 65.226562 C 209.832031 65.953125 210.015625 66.6875 210.164062 67.429688 C 210.308594 68.171875 210.421875 68.917969 210.496094 69.671875 C 210.570312 70.425781 210.605469 71.179688 210.605469 71.9375 Z M 210.605469 71.9375 " fill-opacity="1" fill-rule="nonzero"/>
  </g>
  <g clip-path="url(#8c2fa8ccfc)">
    <path fill="#000000" d="M 187.496094 326.164062 C 204.511719 326.164062 218.308594 312.367188 218.308594 295.351562 L 156.679688 295.351562 C 156.679688 312.367188 170.476562 326.164062 187.496094 326.164062 Z M 187.496094 326.164062 " fill-opacity="1" fill-rule="nonzero"/>
  </g>
</svg>