<svg xmlns="http://www.w3.org/2000/svg" xmlns:xlink="http://www.w3.org/1999/xlink" width="500" zoomAndPan="magnify" viewBox="0 0 375 374.999991" height="500" preserveAspectRatio="xMidYMid meet" version="1.0">
  <defs>
    <clipPath id="316cc0c187">
      <path d="M 93.402344 93.402344 L 281.652344 93.402344 L 281.652344 281.652344 L 93.402344 281.652344 Z M 93.402344 93.402344 " clip-rule="nonzero"/>
    </clipPath>
  </defs>
  <g clip-path="url(#316cc0c187)">
    <path fill="#000000" d="M 262.816406 168.699219 L 206.273438 168.699219 L 206.273438 112.230469 C 206.273438 101.84375 197.839844 93.40625 187.445312 93.40625 C 177.058594 93.40625 168.621094 101.84375 168.621094 112.230469 L 168.621094 168.703125 L 112.230469 168.699219 C 101.839844 168.699219 93.40625 177.132812 93.40625 187.523438 C 93.40625 197.914062 101.839844 206.347656 112.230469 206.347656 L 168.628906 206.347656 L 168.628906 262.820312 C 168.628906 273.210938 177.0625 281.644531 187.453125 281.644531 C 197.839844 281.644531 206.273438 273.210938 206.273438 262.820312 L 206.273438 206.347656 L 262.816406 206.347656 C 273.207031 206.347656 281.640625 197.914062 281.640625 187.523438 C 281.640625 177.132812 273.207031 168.699219 262.816406 168.699219 Z M 262.816406 168.699219 " fill-opacity="1" fill-rule="evenodd"/>
  </g>
</svg>