<svg xmlns="http://www.w3.org/2000/svg" xmlns:xlink="http://www.w3.org/1999/xlink" width="500" zoomAndPan="magnify" viewBox="0 0 375 374.999991" height="500" preserveAspectRatio="xMidYMid meet" version="1.0">
  <defs>
    <clipPath id="20aacbe5fb">
      <path d="M 59.09375 112.0625 L 315.59375 112.0625 L 315.59375 262.8125 L 59.09375 262.8125 Z M 59.09375 112.0625 " clip-rule="nonzero"/>
    </clipPath>
  </defs>
  <g clip-path="url(#20aacbe5fb)">
    <path fill="#000000" d="M 312.875 183.980469 C 312.304688 183.25 298.652344 165.8125 276.46875 148.160156 C 246.789062 124.542969 215.96875 112.0625 187.339844 112.0625 C 158.710938 112.0625 127.890625 124.542969 98.214844 148.160156 C 76.03125 165.8125 62.378906 183.25 61.808594 183.980469 L 59.125 187.433594 L 61.808594 190.886719 C 62.378906 191.621094 76.03125 209.058594 98.214844 226.710938 C 127.890625 250.324219 158.710938 262.808594 187.339844 262.808594 C 215.96875 262.808594 246.789062 250.324219 276.46875 226.710938 C 298.652344 209.058594 312.304688 191.621094 312.875 190.886719 L 315.558594 187.433594 Z M 187.339844 229.132812 C 164.320312 229.132812 145.660156 210.464844 145.660156 187.433594 C 145.660156 164.40625 164.320312 145.734375 187.339844 145.734375 C 193.292969 145.730469 198.980469 146.949219 204.410156 149.394531 C 203.757812 150.0625 203.179688 150.785156 202.675781 151.566406 C 202.167969 152.347656 201.742188 153.171875 201.398438 154.035156 C 201.054688 154.902344 200.796875 155.792969 200.628906 156.710938 C 200.460938 157.625 200.382812 158.550781 200.398438 159.480469 C 200.410156 160.410156 200.515625 161.332031 200.714844 162.242188 C 200.910156 163.152344 201.191406 164.035156 201.5625 164.890625 C 201.933594 165.746094 202.382812 166.554688 202.914062 167.320312 C 203.445312 168.085938 204.042969 168.792969 204.714844 169.441406 C 205.382812 170.085938 206.109375 170.660156 206.894531 171.164062 C 207.675781 171.667969 208.503906 172.089844 209.367188 172.429688 C 210.234375 172.769531 211.128906 173.023438 212.042969 173.1875 C 212.960938 173.351562 213.882812 173.425781 214.816406 173.40625 C 215.746094 173.386719 216.664062 173.277344 217.574219 173.078125 C 218.484375 172.875 219.363281 172.589844 220.21875 172.214844 C 221.070312 171.839844 221.878906 171.386719 222.640625 170.851562 C 223.402344 170.316406 224.105469 169.714844 224.75 169.039062 C 227.605469 174.839844 229.03125 180.96875 229.023438 187.433594 C 229.023438 210.464844 210.359375 229.132812 187.339844 229.132812 Z M 187.339844 229.132812 " fill-opacity="1" fill-rule="nonzero"/>
  </g>
</svg>